<?xml version="1.0" encoding="UTF-8"?>
<svg width="1200pt" height="1200pt" version="1.1" viewBox="0 0 1200 1200" xmlns="http://www.w3.org/2000/svg">
<g>
 <path d="m656.25 651.19c-2.5703 18.031-13.707 33.699-29.891 42.051-16.184 8.3516-35.41 8.3516-51.594 0-16.184-8.3516-27.32-24.02-29.891-42.051 0-19.875 23.25-60.75 39.75-87.375 3.418-5.5156 9.4492-8.8711 15.938-8.8711s12.52 3.3555 15.938 8.8711c15.938 26.625 39.75 67.5 39.75 87.375zm242.44-168.75v281.25c16.746 0 32.223 8.9336 40.594 23.438 8.375 14.504 8.375 32.371 0 46.875-8.3711 14.504-23.848 23.438-40.594 23.438v104.44c16.746 1.0039 31.684 10.867 39.188 25.875 7.5039 15.004 6.4336 32.871-2.8125 46.875-9.2422 14-25.254 22.004-42 21h-585.56c-16.746 1.0039-32.758-7-42-21-9.2461-14.004-10.316-31.871-2.8125-46.875 7.5039-15.008 22.441-24.871 39.188-25.875v-105.38c-16.746 0-32.223-8.9336-40.594-23.438-8.375-14.504-8.375-32.371 0-46.875 8.3711-14.504 23.848-23.438 40.594-23.438v-281.25c-15.371-1.6953-28.906-10.891-36.145-24.559-7.2344-13.664-7.2344-30.031 0-43.695 7.2383-13.668 20.773-22.863 36.145-24.559v-103.12c-15.945-2.0234-29.758-12.043-36.625-26.574-6.8711-14.531-5.8477-31.566 2.7109-45.172 8.5547-13.605 23.465-21.902 39.539-22.004h401.62v-27.375c0-4.9727 1.9766-9.7422 5.4922-13.258 3.5156-3.5156 8.2852-5.4922 13.258-5.4922h75c4.9727 0 9.7422 1.9766 13.258 5.4922 3.5156 3.5156 5.4922 8.2852 5.4922 13.258v27.375h70.875c16.074 0.10156 30.984 8.3984 39.539 22.004 8.5586 13.605 9.582 30.641 2.7109 45.172-6.8672 14.531-20.68 24.551-36.625 26.574v104.25c15.371 1.6953 28.906 10.891 36.145 24.559 7.2344 13.664 7.2344 30.031 0 43.695-7.2383 13.668-20.773 22.863-36.145 24.559zm-37.5 281.25v-280.5h-521.81v279.75zm-521.81-374.44h521.25v-103.31h-521.25zm-31.875-140.81h585c4.4648-0.89844 7.6797-4.8203 7.6797-9.375s-3.2148-8.4766-7.6797-9.375h-585c-4.4648 0.89844-7.6797 4.8203-7.6797 9.375s3.2148 8.4766 7.6797 9.375zm0 197.25h585c5.2812 0 9.5625-4.2812 9.5625-9.5625 0-2.5195-1.0117-4.9336-2.8125-6.6953-1.7969-1.7656-4.2305-2.7305-6.75-2.6797h-585c-2.5195-0.050781-4.9531 0.91406-6.75 2.6797-1.8008 1.7617-2.8125 4.1758-2.8125 6.6953 0 5.2812 4.2812 9.5625 9.5625 9.5625zm553.12 514.69v-103.31h-521.25v103.31zm31.875 37.5h-585c-2.5195-0.050781-4.9531 0.91406-6.75 2.6797-1.8008 1.7617-2.8125 4.1758-2.8125 6.6953 0 5.2812 4.2812 9.5625 9.5625 9.5625h585c5.2812 0 9.5625-4.2812 9.5625-9.5625 0-2.5195-1.0117-4.9336-2.8125-6.6953-1.7969-1.7656-4.2305-2.7305-6.75-2.6797zm0-197.44h-585c-4.4648 0.89844-7.6797 4.8203-7.6797 9.375s3.2148 8.4766 7.6797 9.375h585c2.8086 0.56641 5.7266-0.16016 7.9414-1.9766 2.2188-1.8164 3.5039-4.5312 3.5039-7.3984s-1.2852-5.582-3.5039-7.3984c-2.2148-1.8164-5.1328-2.543-7.9414-1.9766z"/>
 </g>
</svg>
