<?xml version="1.0" encoding="UTF-8"?>
<svg width="128pt" height="128pt" version="1.1" viewBox="0 0 128 128" xmlns="http://www.w3.org/2000/svg">
 <g>
  <path d="m102.68 109.41h-77.352c-3.8828 0-7.043 3.1602-7.043 7.043s3.1602 7.043 7.043 7.043l77.352 0.003906c3.8828 0 7.043-3.1602 7.043-7.043 0-3.8828-3.1602-7.043-7.043-7.043z"/>
  <path d="m25.324 32.016h77.352c3.8828 0 7.043-3.1602 7.043-7.043 0-3.8828-3.1602-7.043-7.043-7.043l-77.352-0.003907c-3.8828 0-7.043 3.1602-7.043 7.043s3.1602 7.043 7.043 7.043z"/>
  <path d="m63.379 6c0-0.82812-0.67188-1.5-1.5-1.5h-23.562c-0.82812 0-1.5 0.67188-1.5 1.5v8.9258h26.562z"/>
  <path d="m27.547 35.016h72.902v5.9414h-72.902z"/>
  <path d="m64 60.199c-3.1172 0-6.9258 9.4414-6.9258 14.105 0 3.8203 3.1094 6.9258 6.9258 6.9258s6.9258-3.1055 6.9258-6.9258c0-4.6602-3.8086-14.105-6.9258-14.105z"/>
  <path d="m27.547 100.47h72.902v5.9414h-72.902z"/>
  <path d="m100.45 43.957h-72.906v53.516h72.906zm-36.453 40.273c-5.4727 0-9.9258-4.4531-9.9258-9.9258 0-4.9336 3.957-17.105 9.9258-17.105s9.9258 12.172 9.9258 17.105c0 5.4727-4.4531 9.9258-9.9258 9.9258z"/>
 </g>
</svg>
