<svg width="1272" height="1431" viewBox="0 0 1272 1431" fill="none" xmlns="http://www.w3.org/2000/svg">
<g clip-path="url(#clip0_40_1097)">
<path d="M694.109 838.841C694.109 693.757 694.71 548.874 693.508 403.79C693.508 380.144 704.529 343.472 665.255 341.668C625.179 339.865 633.595 375.935 633.194 400.584C632.192 461.904 632.794 523.424 632.794 605.384C539.017 530.037 460.869 467.114 374.106 397.377C367.293 471.322 439.028 484.548 451.852 534.846C409.973 558.292 367.693 582.139 317.799 609.993C343.848 632.237 364.888 622.818 383.523 616.807C537.614 567.911 628.185 635.042 632.593 798.562C637.202 976.711 645.417 1154.66 651.83 1332.81C653.433 1380.7 654.635 1433.2 587.107 1430.8C524.99 1428.39 533.005 1376.49 532.404 1334.21C531.202 1236.69 483.512 1176.7 389.334 1154.26C135.054 1093.74 -12.023 924.408 0.80118 705.179C2.4042 679.329 5.00912 651.274 15.8295 628.429C68.1282 516.611 101.992 385.755 182.945 300.187C282.533 194.981 394.143 86.5691 531.402 27.6538C719.758 -53.1042 926.348 49.697 1001.49 251.291C1017.12 293.374 1035.95 322.631 1074.63 348.682C1360.37 541.259 1330.31 925.41 1020.12 1076.91C963.417 1104.56 904.506 1128.41 842.389 1132.62C802.714 1135.22 738.593 1184.92 724.968 1122.6C711.141 1059.47 681.686 980.318 751.818 920.2C833.172 850.464 911.72 777.521 991.47 705.981C985.058 696.563 978.446 687.144 972.034 677.726C890.279 734.236 808.525 790.747 726.771 847.458C715.951 844.652 705.13 841.647 694.109 838.841V838.841Z" fill="#010101"/>
</g>
<defs>
<clipPath id="clip0_40_1097">
<rect width="1272" height="1431" fill="white"/>
</clipPath>
</defs>
</svg>
