<?xml version="1.0" encoding="UTF-8"?>
<svg width="1200pt" height="1200pt" version="1.1" viewBox="0 0 1200 1200" xmlns="http://www.w3.org/2000/svg">
 <g>
  <path d="m739.12 555.2 0.046874 0.25391 0.058594 0.25391c0.45703 2.6641 9.5625 1.3086 11.809-1.6094l0.085938-0.046874c26.496-32.785 69.84-29.137 107.59-33.504 24.254-2.7969 48.613-7.043 71.82-14.664 52.859-17.328 79.668-77.93 118.38-113.35 2.6406-2.3984 0.51562-3.625-2.3047-3.625-69.828-0.27734-144.59-6.0352-211.4 18.742-62.895 23.328-81.109 87.828-96.086 147.55"/>
  <path d="m568.66 260.32c-11.461 49.488 17.93 122.09 55.043 154.85 1.5469 1.3789 3.8867 1.4648 6.0117 0.78125 1.6445-0.33594 3.1562-1.1406 4.0664-2.4961 56.473-83.484 133.8-197.86 65.34-297.06-2.543-3.707-8.5312-1.9219-11.027 0.79297-44.699 48.895-103.43 74.133-119.43 143.13"/>
  <path d="m416.81 614.65 1.4023-0.70703 0.42187-0.25391 1.1523-0.98438 0.023438-0.035156 0.40625-0.70703 0.16797-0.69531 0.097657-0.27734v-2.8672c0-1.2227-1.8711-1.6211-4.1641-1.4531-67.934-66.168-171.7-57.516-249.49-106.7-2.1484-1.3555-13.777 0.058594-12.121 3.9961 20.316 48.625 35.723 106.88 84.898 134.34 56.879 31.727 123.43-0.37109 176.81-23.473z"/>
  <path d="m456.17 783.32c35.125-39.781 29.762-90.625 29.258-139.85-0.023437-1.8711-3.0859-2.2305-6.168-1.5586l-2.5664 0.74219c-41.531 20.16-86.258 35.184-117.6 70.754-34.512 39.109-23.629 99.527-35.543 146.82-1.1641 4.6445 8.6406 1.7891 10.141 0.96094 42.5-23.605 89.527-40.586 122.48-77.871"/>
  <path d="m321.74 435.53h1.0547l0.74219-0.12109c3.5898-0.53906 7.1055-2.9648 6.0352-6.2148-12.301-37.598-22.621-85.848-53.652-113.34-30.758-27.254-78.191-25.992-116.12-19.246-3.8047 0.67188-7.0078 5.0273-3.6367 8.0625 31.645 28.57 31.609 74.746 63.602 102.25 26.555 22.812 68.879 22.68 101.38 28.586l0.60547-0.003906z"/>
  <path d="m987.9 787.64c-38.746-23.219-76.332-52.078-122.17-58.57-40.715-5.7852-72.289 8.0508-110.65 20.219-1.7383 0.5625-2.6289 1.2734-2.9883 2.0508l0.046874 2.7617c23.844 38.461 60.383 81.469 107.58 88.98 53.09 8.4375 81.047-30.637 126.93-48.781 2.9922-1.1758 4.5508-4.6797 1.2617-6.6602"/>
  <path d="m797.86 638.27c-0.88672 1.3555-0.70703 2.3281 0.097656 2.9648 0.39453 0.46875 1.0547 0.875 2.0625 1.1875 70.703 22.055 131.39 2.6992 184.21-47.809 2.7969-2.6875 0.15625-5.0898-2.8203-5.3984-68.051-7.0117-141.05-15.809-183.55 49.055"/>
  <path d="m435.11 275.09c3.5039 3.0859 10.789-0.22656 11.137-4.1875 27.973-28.309 21.742-70.586 6.8164-104.07-19.105-42.887-72.527-32.23-103-57.875-3.8047-3.2266-11.855 0.22656-11.062 5.4609 5.8438 38.039 7.7266 76.309 27.48 110.32 15.523 26.766 46.473 30.953 68.625 50.359"/>
  <path d="m733.13 314.18c29.23 0.13281 62.051 3.625 90.625-4.0547 36.492-9.793 63.191-52.141 94.262-72.301 2.3516-1.5234 3.6602-4.2344 0.011719-5.0156-33.898-7.2109-76.32-21.48-110.2-5.6172-36.516 17.074-57.758 49.992-78.047 83.531l-0.15625 1.9219c-0.027344 0.86328 0.91797 1.5352 3.5 1.5352"/>
  <path d="m330.86 530.5c30.07 16.836 62.074 12.758 85.512-12.07l0.74219-1.4766c-28.57-55.129-86.746-66.551-140.5-41.578-1.0195 0.48047-3.4922 1.7891-2.2422 3.1562 18.145 19.918 32.461 38.492 56.484 51.969"/>
  <path d="m562.67 792.8c-0.81641-23.711-8.9766-47.027-5.8906-70.738l-0.12109-1.7891c-0.9375-3.3477-9.0977-2.2578-11.652 0.88672-24.121 18.91-45.996 38.34-61.105 65.398-22.379 40.043-32.016 88.117-43.523 131.99-0.94922 3.625 5.4727 3.1562 7.2227 2.7227 39.238-9.7422 72.875-26.953 95.891-61.199 12.652-18.801 19.949-44.781 19.18-67.27"/>
  <path d="m334.16 286.31 0.71875-0.023438c3.6367 0.25391 7.8477-1.7031 7.7773-5.1484-1.0312-42.949-15.648-76.512-50.148-102.74-50.195-38.184-105.68-54.758-145.29-107.44-2.7617-3.6719-12.191-2.0039-12.086 3.2383 0.88672 52.668 13.453 108.74 53.496 146.16 39.051 36.504 93.363 57.41 145.53 65.953"/>
  <path d="m1068.2 708.01c-22.285 4.043-32.746-15.59-46.105-29.242-8.543-8.7461-19.246-10.609-30.926-11.184-27.48-1.2969-61.297 6.4805-85.02 20.578-1.043 0.64844-1.7773 1.3438-2.3281 2.0742-1.8828 1.9219-2.5781 4.2461-0.37109 5.6641 13.969 8.832 24.445 21.59 36.719 32.461 15.492 13.668 34.922 20.062 54.91 23.41 33.887 5.6875 49.211-19.223 74.27-35.449 3.8906-2.5156 5.7422-9.5703-1.1484-8.3125"/>
  <path d="m762.64 862.69c-3.7812-1.1289-11.52 1.6797-10.57 4.9062 5.8789 19.934 5.7617 57.516 30.035 64.934 23.797 7.2734 51.457-8.6055 76.234-4.9336 2.1367 0.3125 12.863-1.6797 9.7188-5.6406-24.969-31.699-64.449-57.02-105.42-59.266"/>
  <path d="m537.78 224.8 0.3125 0.3125c2.3633 3.2031 11.258 0.70703 12.301-2.3398 30.422-30.852 53.578-61.152 65.113-103.59 11.41-41.797 2.5312-87.191-26.688-119.28-2.3516-2.6055-8.7969-0.71875-10.848 1.4414-30.445 31.598-49.824 65.617-62.137 107.55-4.9062 16.691-9.8398 31.57-6.8633 48.828 4.0273 23.414 18.27 46.129 28.809 67.07"/>
  <path d="m519 405s69-51 9-144c-15-30-66 15-57 75s48 69 48 69z"/>
  <path d="m454 395s3.9961-82.008-54-92.004-81-3.9961-81-3.9961 20.004 106 135 96z"/>
  <path d="m540.57 1015.8c-14.184 65.422-7.8711 124.21 18.289 184.21h255.17c-47.566-84-92.16-187.54-99.742-281.68-7.1641-88.703 0.55078-197.17 62.746-265.2 0.80469-0.86328 0.70703-2.0508-0.625-2.2812-38.375-7.2734-69.227-26.387-96.781-50.688 15.48-77.328 34.332-153.14 58.992-228.42 1.6328-4.9688-10.441-2.1367-12.133 0.625-33.875 55.945-70.297 117.32-91.824 182.2-10.871-12.086-21.59-24.383-32.496-36.383-54-59.438-126.39-86.762-202.33-101.47-1.6797-0.32422-14.172 2.0391-11.004 4.9805 109.21 100.98 217.89 207.24 200.73 371.57-7.8945 75.59-32.938 148.64-48.984 222.54z"/>
 </g>
</svg>
