<svg width="96" height="22" viewBox="0 0 96 22" fill="none" xmlns="http://www.w3.org/2000/svg">
<g clip-path="url(#clip0_25_671)">
<path d="M20.2497 4.42779V0.885742H11.9031H8.34664H0V4.42779H8.30342V17.4992H0V21.0391H8.34664H11.9031H20.2497V17.4992H11.9463V4.42779H20.2497Z" fill="black"/>
<path d="M70.2924 4.41489V0.885742H64.8951H49.8828V4.41489V17.5121V21.0391H65.0399H70.2924V17.5121H53.5451V12.727H66.6171V9.19999H53.5451V4.41489H70.2924Z" fill="black"/>
<path d="M34.9571 0.894345V0.885742H25.0635V21.0391H34.7605V21.0348C41.0394 20.9638 45.3651 16.5873 45.3651 10.9334C45.3651 5.27943 41.1302 1.04919 34.9571 0.894345V0.894345ZM34.7757 17.5701H28.9289V17.5443H28.6934V4.36542H28.6999V4.35252H34.8318C38.8183 4.44715 41.4132 7.21713 41.4132 10.9871C41.4132 14.7572 38.7945 17.5035 34.7757 17.5723V17.5701Z" fill="black"/>
<path d="M84.9329 0C78.7879 0 73.8076 4.90768 73.8076 10.9616C73.8076 17.0156 78.7879 21.9254 84.9329 21.9254C91.0778 21.9254 96.0603 17.0178 96.0603 10.9616C96.0603 4.90553 91.0778 0 84.9329 0V0ZM84.9329 18.1425C80.9097 18.1425 77.6493 14.9274 77.6493 10.9616C77.6493 6.99592 80.9119 3.78507 84.9329 3.78507C88.9539 3.78507 92.2165 7.00022 92.2165 10.9616C92.2165 14.9231 88.9539 18.1425 84.9329 18.1425Z" fill="black"/>
</g>
<defs>
<clipPath id="clip0_25_671">
<rect width="96" height="22" fill="white"/>
</clipPath>
</defs>
</svg>
